# xmcd
#
# Track frame offsets:
#	150
#	19107
#	22844
#	40833
#	61462
#	80642
#	97600
#	120732
#	142576
#	149510
#	170388
#	193087
#
# Disc length: 2850 seconds
#
# Revision: 2
# Processed by: cddbd v1.5.2PL0 Copyright (c) Steve Scherf et al.
# Submitted via: audiograbber 1.83.01
#
DISCID=940b200c
DTITLE=Top Authority - Top Authority Uncut
DYEAR=1997
DGENRE=Rap
TTITLE0=Top Authority - Buck Em Down
TTITLE1=Top Authority - Interlude
TTITLE2=Top Authority, Yusef Boswell - Dope Game
TTITLE3=Top Authority, Madame Dane - World War III
TTITLE4=Top Authority - Ghetto Is The Trigger
TTITLE5=Top Authority, Tuck - Strange
TTITLE6=Top Authority - Lifestyle Of A "G"
TTITLE7=Top Authority - Never Know When
TTITLE8=Top Authority - Dreamin
TTITLE9=Top Authority, Big Whup - Playaz
TTITLE10=Top Authority - Trying So Hard
TTITLE11=Top Authority - Haters
EXTD=www.RapMusicGuide.com\n
EXTT0=
EXTT1=
EXTT2=
EXTT3=
EXTT4=
EXTT5=
EXTT6=
EXTT7=
EXTT8=
EXTT9=
EXTT10=
EXTT11=
PLAYORDER=
